<svg xmlns="http://www.w3.org/2000/svg" viewBox="0 0 1280 252" width="1280" height="252">
	<style>
		tspan { white-space:pre }
		.shp0 { fill: #094c7f } 
	</style>
	<path id="Shape 1" class="shp0" d="M0 0C0 0 391.22 139.25 460 118C528.78 96.75 518.23 52.06 571 66C623.77 79.94 707.27 194.57 847 146C986.73 97.43 989.73 -18.09 1046 55C1102.27 128.09 1144 281.71 1212 238C1280 194.29 1340 74 1340 74C1340 74 1327.36 -57.17 1328 -57C1328.64 -56.83 378.8 -91.06 379 -91C379.2 -90.94 47 -56 47 -56L-19 -51L-25 0L0 0Z" />
</svg>