<svg xmlns="http://www.w3.org/2000/svg" xmlns:xlink="http://www.w3.org/1999/xlink" width="1012" height="227" viewBox="0 0 1012 227">
  <defs>
    <path id="a" d="M.166.11h22.681v21.698H.166V.111z"/>
    <path id="c" d="M71.858 91H.14V.06h71.718V91z"/>
    <path id="e" d="M264 200H0V0h264z"/>
  </defs>
  <g fill="none" fill-rule="evenodd">
    <path fill="#36F182" d="M786.572 206c-.707 0-2.767-.176-3.555-.243-4.99-.42-9.576-1.884-13.49-4.167-6.113-3.377-10.973-8.713-14.006-15.364a23.246 23.246 0 0 0-.075-.174 37.47 37.47 0 0 1-2.226-6.492l-.09-.371a41.478 41.478 0 0 1-.812-4.578l-.049-.473a42.701 42.701 0 0 1-.164-1.906l-.036-.56a44.132 44.132 0 0 1-.069-2.39 44.913 44.913 0 0 1 .12-3.166c.05-.73.118-1.463.206-2.187l.031-.276c.093-.726.214-1.492.373-2.338l.126-.636c.127-.628.27-1.25.426-1.861l.033-.135c.027-.117.057-.235.087-.352.185-.692.396-1.393.641-2.133l.212-.613c.195-.55.395-1.086.61-1.615l.071-.178a33.303 33.303 0 0 1 1.048-2.329c.062-.13.13-.259.2-.391l.093-.178c.253-.484.508-.952.774-1.41l.108-.188c.08-.142.161-.282.245-.422.36-.59.726-1.164 1.112-1.721.082-.119.162-.228.244-.338l.122-.169c.304-.422.612-.832.93-1.233a31.246 31.246 0 0 1 1.762-2.063c.102-.108.197-.204.293-.3l.15-.153c.355-.365.716-.72 1.084-1.064a30.945 30.945 0 0 1 1.78-1.55c.25-.206.507-.405.767-.601a28.207 28.207 0 0 1 1.982-1.393c.366-.238.733-.462 1.107-.683.31-.184.623-.367.941-.541.465-.255.934-.496 1.407-.727.17-.092.27-.142.37-.19 1.146-.565 2.536-1.106 4.085-1.584l.126-.038c.34-.102.67-.193 1.011-.284.412-.114.822-.212 1.235-.308l.112-.028c.103-.024.213-.04.321-.051a34.898 34.898 0 0 1 7.63-.843c.406 0 .818-.027 1.312 0 15.938.236 27.45 9.229 31.629 24.5.194.712.048 1.325-.398 1.913-.444.59-1.138.783-1.872.783h-18.529c-.872 0-1.673-.334-2.081-1.112-2.028-3.862-5.216-5.78-9.743-6.02-6.715.36-11.927 4.857-12.968 12.61a28.552 28.552 0 0 0-.229 3.687c0 9.87 5.642 16.248 13.214 16.658 5.191-.278 8.132-3.172 9.687-5.533.436-.663 1.173-1.092 1.964-1.092h18.667c.74 0 1.44.387 1.884.985a2.42 2.42 0 0 1 .376 2.105C814.612 197.202 802.53 206 786.572 206"/>
    <path fill="#FFF" d="M662.406 97h-1.016C635.228 97 617 77.223 617 49.493c0-27.889 18.452-47.429 44.87-47.429.324 0 .933-.082 1.006-.06 19.758.168 32.408 11.145 38.026 29.83.212.706.076 2.06-.366 2.653-.444.593-1.143 1.53-1.884 1.53h-18.014c-.933 0-1.779-1.15-2.152-2.003-2.983-6.8-8.242-10.622-16.08-10.622-.246 0-.56-.11-1-.15-13.07.236-20.548 10.422-20.548 26.2 0 15.975 7.677 26.258 21.012 26.258.354 0 .644-.084.838-.018.04.01.078-.022.114-.01 8.317-.157 12.939-5.062 15.362-9.112.423-.709 1.19-1.404 2.02-1.404h18.191c.76 0 1.471.62 1.913 1.236.441.616.556 1.657.308 2.37C694.489 86.427 681.383 97 662.406 97M583.406 205h-1.016c-26.162 0-44.39-19.777-44.39-47.507 0-27.888 18.452-47.429 44.87-47.429.324 0 .933-.082 1.006-.06 19.758.168 32.409 11.145 38.026 29.83.212.706.076 2.06-.366 2.653-.444.594-1.143 1.53-1.885 1.53h-18.013c-.933 0-1.779-1.15-2.152-2.003-2.983-6.8-8.242-10.622-16.08-10.622-.246 0-.56-.11-1-.15-13.07.236-20.548 10.422-20.548 26.2 0 15.974 7.677 26.258 21.012 26.258.354 0 .644-.084.838-.02.04.011.078-.02.114-.01 8.317-.155 12.939-5.06 15.362-9.11.423-.71 1.19-1.403 2.02-1.403h18.191c.76 0 1.471.62 1.913 1.235.441.616.556 1.657.308 2.37-6.127 17.664-19.233 28.238-38.21 28.238M439.748 94.929H420.42a2.343 2.343 0 0 1-2.284-1.814L405.87 39.421l-12.154 53.69a2.344 2.344 0 0 1-2.285 1.818h-19.32a2.342 2.342 0 0 1-2.262-1.724L346.084 6.02a2.332 2.332 0 0 1 .392-2.035c.443-.579 2.078-.918 2.81-.918h18.43c1.089 0 2.035.747 2.282 1.805l13.239 55.252L395.79 4.861a2.342 2.342 0 0 1 2.28-1.794h15.703a2.34 2.34 0 0 1 2.28 1.8l12.438 55.217 13.234-55.212a2.344 2.344 0 0 1 2.283-1.805h18.44a2.338 2.338 0 0 1 2.262 2.95L442.01 93.2a2.343 2.343 0 0 1-2.262 1.728M528.661 96h-15.774a2.34 2.34 0 0 1-2.34-2.342V54.226c0-7.616-3.483-9.178-8.712-9.178-6.008 0-9.825 3.886-11.323 5.772v42.838a2.34 2.34 0 0 1-2.34 2.342H471.34a2.34 2.34 0 0 1-2.34-2.342V6.343A2.34 2.34 0 0 1 471.34 4h16.832a2.34 2.34 0 0 1 2.34 2.343V32.07c3.853-3.073 10.075-6.499 18.65-6.499 13.879 0 21.838 8.106 21.838 22.24v45.847A2.34 2.34 0 0 1 528.661 96M831.663 95h-15.88a2.331 2.331 0 0 1-2.338-2.327V53.74c0-6.663-2.52-9.382-8.704-9.382-5.746 0-9.581 3.657-11.31 5.76v42.555A2.331 2.331 0 0 1 791.093 95h-15.757A2.33 2.33 0 0 1 773 92.673V28.89a2.332 2.332 0 0 1 2.337-2.328h15.757a2.332 2.332 0 0 1 2.336 2.328v2.577C797.958 27.914 804.396 25 812.06 25 826.005 25 834 33.152 834 47.365v45.308A2.332 2.332 0 0 1 831.663 95M869.537 96H852.34A2.34 2.34 0 0 1 850 93.658V6.343A2.34 2.34 0 0 1 852.341 4h56.318A2.34 2.34 0 0 1 911 6.343v15.426a2.341 2.341 0 0 1-2.341 2.342h-36.783v17.396h33.105a2.341 2.341 0 0 1 2.34 2.341v15.427a2.341 2.341 0 0 1-2.34 2.343h-33.105v32.04a2.34 2.34 0 0 1-2.34 2.342"/>
    <g transform="translate(916)">
      <mask id="b" fill="#fff">
        <use xlink:href="#a"/>
      </mask>
      <path fill="#FFF" d="M11.445 21.808c-6.22 0-11.28-4.892-11.28-10.906 0-5.95 5.06-10.791 11.28-10.791 6.288 0 11.402 4.842 11.402 10.791 0 6.014-5.114 10.906-11.402 10.906" mask="url(#b)"/>
    </g>
    <path fill="#FFF" d="M935.711 96h-15.424c-1.263 0-2.287-1.052-2.287-2.352V29.353c0-1.3 1.024-2.353 2.287-2.353h15.424c1.265 0 2.289 1.053 2.289 2.353v64.295c0 1.3-1.024 2.352-2.289 2.352M1009.655 95H992.1a2.339 2.339 0 0 1-1.984-1.101l-11.625-18.542-11.735 18.55a2.346 2.346 0 0 1-1.98 1.093h-17.43a2.343 2.343 0 0 1-2.061-1.235 2.376 2.376 0 0 1 .094-2.415l20.437-31.72-19.205-29.985a2.38 2.38 0 0 1-.09-2.412A2.348 2.348 0 0 1 948.583 26h17.553c.806 0 1.555.416 1.985 1.1l10.369 16.52 10.261-16.511A2.342 2.342 0 0 1 990.74 26h17.555c.858 0 1.646.472 2.059 1.23.41.758.378 1.682-.085 2.41l-19.086 29.986 20.44 31.724a2.38 2.38 0 0 1 .092 2.415 2.342 2.342 0 0 1-2.06 1.235M451.653 204h-17.152a2.344 2.344 0 0 1-2.347-2.342v-55.056l-20.745 55.842A2.346 2.346 0 0 1 409.2 204h-9.61a2.344 2.344 0 0 1-2.21-1.556l-20.75-55.842v55.056a2.345 2.345 0 0 1-2.346 2.342h-16.936a2.344 2.344 0 0 1-2.347-2.342v-87.316a2.344 2.344 0 0 1 2.347-2.342h24.07c.995 0 1.882.628 2.213 1.567l20.762 56.74 20.766-56.741a2.348 2.348 0 0 1 2.214-1.566h24.281a2.345 2.345 0 0 1 2.347 2.342v87.316a2.345 2.345 0 0 1-2.347 2.342"/>
    <g transform="translate(458 136)">
      <mask id="d" fill="#fff">
        <use xlink:href="#c"/>
      </mask>
      <path fill="#FFF" d="M36.637 90.944L20.191 91a2.356 2.356 0 0 1-1.939-1.018 2.345 2.345 0 0 1-.26-2.172l7.872-20.556L.294 3.248A2.35 2.35 0 0 1 2.493.059h18.203c.996 0 1.883.626 2.216 1.563l13.536 38.912L50.092 1.616A2.352 2.352 0 0 1 52.306.059h17.199a2.354 2.354 0 0 1 2.2 3.185L38.84 89.425a2.353 2.353 0 0 1-2.202 1.519" mask="url(#d)"/>
    </g>
    <path fill="#FFF" d="M656.258 174.76c-4.436 0-8.914 2.231-8.914 7.214 0 5.228 4.802 7.083 8.914 7.083 4.318 0 8.174-1.502 10.275-3.961v-7.178c-1.868-2.096-5.32-3.159-10.275-3.159m-6.3 30.241C638.83 205 627 196.838 627 181.713c0-9.452 4.105-14.094 7.548-17.11 4.109-3.598 9.726-5.661 15.41-5.661 6.46 0 12.238 1.68 16.575 4.726v-2.645c0-5.097-4.126-9.2-10.768-9.2-5.289 0-10.09 1.722-14.275 5.114-.51.413-1.17.59-1.811.492a2.323 2.323 0 0 1-1.583-1.011l-7.33-11.01c-.633-.95-.491-2.22.332-3.004 6.358-6.064 16.085-9.404 27.385-9.404 18.122 0 28.517 9.585 28.517 26.298v41.789a2.335 2.335 0 0 1-2.327 2.342H668.86a2.335 2.335 0 0 1-2.327-2.342v-1.21C662.1 203.145 656.238 205 649.959 205M734.259 66.76c-4.437 0-8.916 2.232-8.916 7.214 0 5.229 4.804 7.083 8.916 7.083 4.316 0 8.172-1.503 10.274-3.96v-7.179c-1.867-2.095-5.319-3.157-10.274-3.157M727.959 97C716.829 97 705 88.838 705 73.713c0-15.726 11.53-21.817 22.959-21.817 6.954 0 12.502 1.321 16.574 3.936v-2.801c0-5.096-4.126-9.209-10.768-9.209-5.288 0-10.092 1.721-14.276 5.115a2.324 2.324 0 0 1-1.81.492 2.325 2.325 0 0 1-1.584-1.013l-7.33-11.008a2.356 2.356 0 0 1 .333-3.005C715.457 28.34 725.182 25 736.484 25 754.606 25 765 34.585 765 51.298v41.788a2.334 2.334 0 0 1-2.327 2.343H746.86a2.335 2.335 0 0 1-2.328-2.343v-1.209C740.1 95.144 734.238 97 727.96 97M713.305 203h-15.941c-1.305 0-2.364-1.043-2.364-2.328v-63.783c0-1.286 1.059-2.328 2.364-2.328h15.941c1.306 0 2.363 1.042 2.363 2.328v2.743c4.987-4.133 11.203-6.632 16.967-6.632 1.306 0 2.365 1.041 2.365 2.328v16.136c0 .71-.33 1.382-.896 1.824a2.398 2.398 0 0 1-2.008.443c-.974-.225-2.199-.33-3.854-.33-4.438 0-10.199 2.594-12.574 5.57v41.7c0 1.286-1.057 2.329-2.363 2.329"/>
    <path fill="#36F182" d="M737.5 206c-6.776 0-12.5-5.953-12.5-13s5.724-13 12.5-13 12.5 5.953 12.5 13-5.724 13-12.5 13M856.938 152.983c-6.413 0-12.882 5.085-12.882 16.449 0 8.255 3.982 16.585 12.882 16.585 8.986 0 13.007-8.33 13.007-16.585 0-8.189-4.021-16.45-13.007-16.45m0 53.018C837.273 206 823 190.622 823 169.432c0-21.11 14.273-36.432 33.938-36.432C876.675 133 891 148.323 891 169.432c0 21.19-14.325 36.568-34.062 36.568"/>
    <path fill="#FFF" d="M569.938 44.954c-6.425 0-12.91 5.095-12.91 16.479 0 8.268 3.993 16.613 12.91 16.613 9.003 0 13.033-8.345 13.033-16.613 0-8.202-4.03-16.479-13.033-16.479m0 53.046C550.274 98 536 82.62 536 61.433 536 40.323 550.274 25 569.938 25 589.675 25 604 40.323 604 61.433 604 82.62 589.675 98 569.938 98"/>
    <path fill="#36F182" d="M974.915 134c-7.84 0-14.515 2.623-19.334 7.587l-.274.29-.269-.315c-4.26-5.016-10.163-7.562-17.549-7.562-6.798 0-13.492 2.517-16.844 6.57l-1.17 1.173v-2.808c0-1.29-.751-2.338-2.05-2.338h-16.921c-1.299 0-2.504.897-2.504 2.187v61.878a2.346 2.346 0 0 0 2.353 2.338H917.274c1.299 0 2.201-1.197 2.201-2.488V160.352c0-.089-.02-.18 0-.272.983-4.318 5.162-7.108 9.485-7.108 6.755 0 7.756 7.92 7.756 10.808v36.616c0 .493.159 1.11.437 1.62a2.353 2.353 0 0 0 1.916.984h17.828c1.3 0 2.202-1.197 2.202-2.488v-40.127c0-.102-.03-.208 0-.317 1.136-4.378 3.784-7.096 8.046-7.096 6.707 0 7.077 7.92 7.077 10.808v36.882a2.346 2.346 0 0 0 2.353 2.338h17.223c1.3 0 2.202-1.197 2.202-2.488V157.163C996 142.66 988.14 134 974.915 134"/>
    <g>
      <mask id="f" fill="#fff">
        <use xlink:href="#e"/>
      </mask>
      <path fill="#36F182" d="M222.466 130.805c-12.137 0-21.984-9.837-21.984-21.97 0-12.132 9.847-21.968 21.984-21.968 12.148 0 21.995 9.836 21.995 21.969 0 12.132-9.847 21.969-21.995 21.969zM48.373 67.099L60.12 30.756c2.829-8.718 6.105-11.223 15.822-11.223h112.114c8.948 0 13.096 2.838 15.822 11.223l11.748 36.343H48.373zm-6.838 63.706c-12.149 0-21.997-9.837-21.997-21.97 0-12.132 9.848-21.968 21.997-21.968 12.135 0 21.986 9.836 21.986 21.969 0 12.132-9.85 21.969-21.986 21.969zm202.354-63.706h-6.326L220.678 15.11C217.902 6.552 208.434 0 199.374 0H64.626c-9.06 0-18.528 6.552-21.303 15.11L26.44 67.1h-6.33C9.001 67.099 0 76.09 0 87.183v70.766h20.066v28.101c0 7.705 6.252 13.95 13.964 13.95H52.52c7.713 0 13.964-6.245 13.964-13.95v-28.1H197.49v28.1c0 7.705 6.25 13.95 13.962 13.95h18.491c7.714 0 13.965-6.245 13.965-13.95v-28.1H264V87.182c0-11.092-9-20.084-20.111-20.084z" mask="url(#f)"/>
    </g>
  </g>
</svg>
